<svg viewBox="0 0 64 64" xmlns="http://www.w3.org/2000/svg" role="img" aria-label="Spacehatch">
  <rect x="2" y="2" width="60" height="60" rx="15" fill="#0b0e14" stroke="#2a3446" stroke-width="1.5"/>
  <path d="M15.65909090909091 34.05681818181819Q10.59090909090909 32.125 8.795454545454545 30.0Q7.0 27.875 7.0 24.28409090909091Q7.0 19.670454545454547 9.954545454545455 17.03409090909091Q12.90909090909091 14.397727272727273 18.06818181818182 14.397727272727273Q20.409090909090907 14.397727272727273 22.75 14.931818181818183Q25.090909090909093 15.465909090909093 27.38636363636364 16.51136363636364V23.056818181818183Q25.227272727272727 21.53409090909091 23.0 20.738636363636367Q20.772727272727273 19.94318181818182 18.590909090909093 19.94318181818182Q16.15909090909091 19.94318181818182 14.863636363636363 20.920454545454547Q13.568181818181818 21.897727272727273 13.568181818181818 23.715909090909093Q13.568181818181818 25.125 14.511363636363637 26.045454545454547Q15.454545454545455 26.965909090909093 18.454545454545453 28.079545454545457L21.340909090909093 29.170454545454547Q25.43181818181818 30.670454545454547 27.363636363636363 33.14772727272727Q29.295454545454547 35.625 29.295454545454547 39.39772727272727Q29.295454545454547 44.534090909090914 26.261363636363637 47.06818181818182Q23.227272727272727 49.60227272727273 17.090909090909093 49.60227272727273Q14.568181818181818 49.60227272727273 12.03409090909091 49.0Q9.5 48.39772727272727 7.136363636363637 47.21590909090909V40.28409090909091Q9.818181818181818 42.19318181818182 12.329545454545455 43.125Q14.840909090909092 44.05681818181819 17.295454545454547 44.05681818181819Q19.772727272727273 44.05681818181819 21.136363636363637 42.93181818181819Q22.5 41.80681818181819 22.5 39.78409090909091Q22.5 38.26136363636364 21.59090909090909 37.11363636363637Q20.68181818181818 35.96590909090909 18.954545454545453 35.30681818181819ZM35.20454545454545 15.01136363636364H41.909090909090914V27.94318181818182H50.29545454545455V15.01136363636364H57.0V48.94318181818182H50.29545454545455V33.85227272727273H41.909090909090914V48.94318181818182H35.20454545454545Z" fill="#ffffff"/>
</svg>
